<svg width="33" height="33" viewBox="0 0 33 33" fill="none" xmlns="http://www.w3.org/2000/svg">
<g clip-path="url(#clip0_1128_22999)">
<path d="M32.0136 9.01538H30.4836V16.6354H32.0136V9.01538Z" fill="#000001"/>
<path d="M30.4835 16.6354H28.9635V19.6854H30.4835V16.6354Z" fill="#000001"/>
<path d="M30.4835 7.49538H28.9635V9.01538H30.4835V7.49538Z" fill="#000001"/>
<path d="M28.9635 19.6854H27.4435V21.2054H28.9635V19.6854Z" fill="#000001"/>
<path d="M28.9635 10.5354H27.4435V13.5854H28.9635V10.5354Z" fill="#000001"/>
<path d="M28.9635 5.96538H27.4435V7.49538H28.9635V5.96538Z" fill="#000001"/>
<path d="M27.4435 9.01538H25.9135V10.5354H27.4435V9.01538Z" fill="#000001"/>
<path d="M27.4436 21.2054H24.3936V22.7254H27.4436V21.2054Z" fill="#000001"/>
<path d="M25.9136 7.49538H22.8636V9.01538H25.9136V7.49538Z" fill="#000001"/>
<path d="M24.3936 22.7254H21.3436V24.2554H24.3936V22.7254Z" fill="#000001"/>
<path d="M27.4435 4.44537H19.8235V5.96537H27.4435V4.44537Z" fill="#000001"/>
<path d="M21.3435 24.2554H18.2935V25.7754H21.3435V24.2554Z" fill="#000001"/>
<path d="M19.8235 5.96538H18.2935V7.49538H19.8235V5.96538Z" fill="#000001"/>
<path d="M18.2935 25.7754H16.7735V27.2954H18.2935V25.7754Z" fill="#000001"/>
<path d="M18.2935 7.49538H16.7735V9.01538H18.2935V7.49538Z" fill="#000001"/>
<path d="M16.7736 27.2954H15.2536V28.8254H16.7736V27.2954Z" fill="#000001"/>
<path d="M16.7736 9.01538H15.2536V10.5354H16.7736V9.01538Z" fill="#000001"/>
<path d="M15.2536 25.7754H13.7236V27.2954H15.2536V25.7754Z" fill="#000001"/>
<path d="M15.2536 7.49538H13.7236V9.01538H15.2536V7.49538Z" fill="#000001"/>
<path d="M13.7236 24.2554H10.6736V25.7754H13.7236V24.2554Z" fill="#000001"/>
<path d="M13.7236 5.96538H12.2036V7.49538H13.7236V5.96538Z" fill="#000001"/>
<path d="M10.6735 22.7254H7.63354V24.2554H10.6735V22.7254Z" fill="#000001"/>
<path d="M7.63356 21.2054H4.58356V22.7254H7.63356V21.2054Z" fill="#000001"/>
<path d="M12.2036 4.44537H4.58356V5.96537H12.2036V4.44537Z" fill="#000001"/>
<path d="M4.58355 19.6854H3.06355V21.2054H4.58355V19.6854Z" fill="#000001"/>
<path d="M4.58355 5.96538H3.06355V7.49538H4.58355V5.96538Z" fill="#000001"/>
<path d="M3.06355 16.6354H1.53355V19.6854H3.06355V16.6354Z" fill="#000001"/>
<path d="M3.06355 7.49538H1.53355V9.01538H3.06355V7.49538Z" fill="#000001"/>
<path d="M1.53355 9.01538H0.0135498V16.6354H1.53355V9.01538Z" fill="#000001"/>
</g>
<defs>
<clipPath id="clip0_1128_22999">
<rect width="32" height="32" fill="white" transform="translate(0.0135498 0.635376)"/>
</clipPath>
</defs>
</svg>
