<svg width="33" height="33" viewBox="0 0 33 33" fill="none" xmlns="http://www.w3.org/2000/svg">
<g clip-path="url(#clip0_1128_6941)">
<path d="M29.8804 24.4194V3.08943H8.55042V0.0394287H3.98042V3.08943H0.93042V7.65943H3.98042V28.9894H25.3104V32.0394H29.8804V28.9894H32.9304V24.4194H29.8804ZM31.4104 27.4694H28.3604V30.5194H26.8404V27.4694H5.50042V6.13943H2.46042V4.60943H5.50042V1.55943H7.03042V4.60943H28.3604V25.9494H31.4104V27.4694Z" fill="#000001"/>
<path d="M7.03042 6.1394V25.9494H26.8404V6.1394H7.03042ZM25.3104 15.2794H20.7404V16.7994H25.3104V24.4194H20.7404V22.8994H19.2204V24.4194H8.55042V22.8994H10.0804V21.3694H8.55042V7.6594H25.3104V15.2794Z" fill="#000001"/>
<path d="M20.7404 16.7994H19.2204V18.3294H20.7404V16.7994Z" fill="#000001"/>
<path d="M19.2204 18.3294H17.6904V19.8494H19.2204V18.3294Z" fill="#000001"/>
<path d="M19.2204 21.3694H17.6904V22.8994H19.2204V21.3694Z" fill="#000001"/>
<path d="M17.6904 19.8494H16.1704V21.3694H17.6904V19.8494Z" fill="#000001"/>
<path d="M11.6004 15.2794H14.6504V13.7494H16.1704V10.7094H14.6504V9.17944H11.6004V10.7094H10.0804V13.7494H11.6004V15.2794Z" fill="#000001"/>
<path d="M16.1704 18.3294H11.6004V19.8494H16.1704V18.3294Z" fill="#000001"/>
<path d="M11.6004 19.8494H10.0804V21.3694H11.6004V19.8494Z" fill="#000001"/>
</g>
<defs>
<clipPath id="clip0_1128_6941">
<rect width="32" height="32" fill="white" transform="translate(0.93042 0.0394287)"/>
</clipPath>
</defs>
</svg>
