<svg width="33" height="32" viewBox="0 0 33 32" fill="none" xmlns="http://www.w3.org/2000/svg">
<g clip-path="url(#clip0_1135_3046)">
<path d="M19.1501 13.72V15.24H20.6701V21.34H22.1901V15.24H29.8101V24.38H31.3401V7.62H29.8101V13.72H19.1501Z" fill="#000001"/>
<path d="M29.8102 24.38H28.2902V25.91H29.8102V24.38Z" fill="#000001"/>
<path d="M29.8102 6.10004H28.2902V7.62004H29.8102V6.10004Z" fill="#000001"/>
<path d="M28.2901 9.15002H26.7701V10.67H28.2901V9.15002Z" fill="#000001"/>
<path d="M28.2902 25.91H3.91016V27.43H28.2902V25.91Z" fill="#000001"/>
<path d="M26.7701 10.67H22.1901V12.19H26.7701V10.67Z" fill="#000001"/>
<path d="M26.7701 7.62H22.1901V9.14999H26.7701V7.62Z" fill="#000001"/>
<path d="M22.1902 9.15002H20.6702V10.67H22.1902V9.15002Z" fill="#000001"/>
<path d="M20.6701 21.34H19.1501V22.86H20.6701V21.34Z" fill="#000001"/>
<path d="M28.2901 4.57001H17.6201V6.10001H28.2901V4.57001Z" fill="#000001"/>
<path d="M14.58 21.34H17.62V19.81H19.15V16.76H17.62V18.29H16.1V16.76H17.62V15.24H14.58V16.76H13.05V19.81H14.58V21.34Z" fill="#000001"/>
<path d="M19.15 12.19H13.05V13.72H19.15V12.19Z" fill="#000001"/>
<path d="M19.15 22.86H13.05V24.38H19.15V22.86Z" fill="#000001"/>
<path d="M17.6201 6.10004H16.1001V7.62004H17.6201V6.10004Z" fill="#000001"/>
<path d="M13.0502 21.34H11.5302V22.86H13.0502V21.34Z" fill="#000001"/>
<path d="M13.0501 4.57001H8.4801V6.10001H13.0501V4.57001Z" fill="#000001"/>
<path d="M8.48005 10.67H5.43005V12.19H8.48005V10.67Z" fill="#000001"/>
<path d="M16.1002 9.15004V7.62004H14.5802V6.10004H13.0502V7.62004H8.48016V6.10004H6.96016V7.62004H3.91016V9.15004H16.1002Z" fill="#000001"/>
<path d="M3.91013 24.38H2.38013V25.91H3.91013V24.38Z" fill="#000001"/>
<path d="M3.91013 9.15002H2.38013V10.67H3.91013V9.15002Z" fill="#000001"/>
<path d="M2.38011 15.24H10.0001V21.34H11.5301V15.24H13.0501V13.72H2.38011V10.67H0.860107V24.38H2.38011V15.24Z" fill="#000001"/>
</g>
<defs>
<clipPath id="clip0_1135_3046">
<rect width="32" height="32" fill="white" transform="translate(0.100098)"/>
</clipPath>
</defs>
</svg>
