<svg width="33" height="32" viewBox="0 0 33 32" fill="none" xmlns="http://www.w3.org/2000/svg">
<g clip-path="url(#clip0_1128_13117)">
<path d="M32.0901 23.62H30.5701V26.67H32.0901V23.62Z" fill="#000001"/>
<path d="M32.0901 14.47H30.5701V17.52H32.0901V14.47Z" fill="#000001"/>
<path d="M32.0901 5.32999H30.5701V8.37999H32.0901V5.32999Z" fill="#000001"/>
<path d="M30.5702 26.67H12.2802V28.19H30.5702V26.67Z" fill="#000001"/>
<path d="M30.5702 17.52H12.2802V19.05H30.5702V17.52Z" fill="#000001"/>
<path d="M30.5702 8.38H12.2802V9.9H30.5702V8.38Z" fill="#000001"/>
<path d="M30.5702 22.09H12.2802V23.62H30.5702V22.09Z" fill="#000001"/>
<path d="M30.5702 12.95H12.2802V14.47H30.5702V12.95Z" fill="#000001"/>
<path d="M30.5702 3.81H12.2802V5.33H30.5702V3.81Z" fill="#000001"/>
<path d="M12.2801 23.62H10.7601V26.67H12.2801V23.62Z" fill="#000001"/>
<path d="M12.2801 14.47H10.7601V17.52H12.2801V14.47Z" fill="#000001"/>
<path d="M12.2801 5.32999H10.7601V8.37999H12.2801V5.32999Z" fill="#000001"/>
<path d="M1.61011 26.67H3.14011V28.19H6.19011V26.67H7.71011V23.62H6.19011V22.09H3.14011V23.62H1.61011V26.67Z" fill="#000001"/>
<path d="M1.61011 17.52H3.14011V19.05H6.19011V17.52H7.71011V14.47H6.19011V12.95H3.14011V14.47H1.61011V17.52Z" fill="#000001"/>
<path d="M3.14011 5.33H1.61011V8.38H3.14011V9.9H6.19011V8.38H7.71011V5.33H6.19011V3.81H3.14011V5.33Z" fill="#000001"/>
</g>
<defs>
<clipPath id="clip0_1128_13117">
<rect width="32" height="32" fill="white" transform="translate(0.850098)"/>
</clipPath>
</defs>
</svg>
