<svg width="33" height="32" viewBox="0 0 33 32" fill="none" xmlns="http://www.w3.org/2000/svg">
<g clip-path="url(#clip0_1128_10975)">
<path d="M32.8501 5.33002H31.3201V23.62H32.8501V5.33002Z" fill="#000001"/>
<path d="M31.32 23.62H29.8V25.14H31.32V23.62Z" fill="#000001"/>
<path d="M31.32 3.81H29.8V5.33H31.32V3.81Z" fill="#000001"/>
<path d="M29.8002 25.14H28.2802V26.66H29.8002V25.14Z" fill="#000001"/>
<path d="M29.8002 2.28H28.2802V3.81H29.8002V2.28Z" fill="#000001"/>
<path d="M28.2801 20.57H26.7501V22.09H28.2801V20.57Z" fill="#000001"/>
<path d="M28.2801 6.86002H26.7501V8.38002H28.2801V6.86002Z" fill="#000001"/>
<path d="M28.2801 26.66H23.7001V28.19H28.2801V26.66Z" fill="#000001"/>
<path d="M26.7501 19.05H25.2301V20.57H26.7501V19.05Z" fill="#000001"/>
<path d="M26.7501 8.38H25.2301V9.9H26.7501V8.38Z" fill="#000001"/>
<path d="M28.2801 0.76001H23.7001V2.28001H28.2801V0.76001Z" fill="#000001"/>
<path d="M25.2301 9.90002H23.7001V19.05H25.2301V9.90002Z" fill="#000001"/>
<path d="M23.7002 25.14H20.6602V26.66H23.7002V25.14Z" fill="#000001"/>
<path d="M23.7002 2.28H20.6602V3.81H23.7002V2.28Z" fill="#000001"/>
<path d="M20.6601 23.62H17.6101V25.14H20.6601V23.62Z" fill="#000001"/>
<path d="M20.6601 3.81H17.6101V5.33H20.6601V3.81Z" fill="#000001"/>
<path d="M17.61 22.09H13.04V23.62H17.61V22.09Z" fill="#000001"/>
<path d="M17.61 5.33002H13.04V6.86002H17.61V5.33002Z" fill="#000001"/>
<path d="M9.9901 20.57V8.38002H13.0401V6.86002H5.4201V8.38002H2.3701V9.90002H0.850098V19.05H2.3701V20.57H5.4201V29.71H6.9401V22.09H9.9901V29.71H11.5101V22.09H13.0401V20.57H9.9901ZM5.4201 11.43H3.9001V14.47H2.3701V11.43H3.9001V9.90002H5.4201V11.43Z" fill="#000001"/>
<path d="M9.99006 29.71H6.94006V31.24H9.99006V29.71Z" fill="#000001"/>
</g>
<defs>
<clipPath id="clip0_1128_10975">
<rect width="32" height="32" fill="white" transform="translate(0.850098)"/>
</clipPath>
</defs>
</svg>
