<svg width="33" height="32" viewBox="0 0 33 32" fill="none" xmlns="http://www.w3.org/2000/svg">
<path d="M28.275 7.60999H26.755V15.23H28.275V7.60999Z" fill="#000001"/>
<path d="M26.7551 15.23H25.2351V19.8H26.7551V15.23Z" fill="#000001"/>
<path d="M26.7551 4.57001H25.2351V7.61001H26.7551V4.57001Z" fill="#000001"/>
<path d="M25.2351 19.8H23.7051V22.85H25.2351V19.8Z" fill="#000001"/>
<path d="M25.2351 3.03998H23.7051V4.56998H25.2351V3.03998Z" fill="#000001"/>
<path d="M23.7051 22.85H22.1851V25.9H23.7051V22.85Z" fill="#000001"/>
<path d="M22.185 12.19H20.665V9.14001H19.135V7.61001H17.615V6.09001H19.135V4.57001H14.565V6.09001H13.045V7.61001H11.515V9.14001H9.995V13.71H11.515V15.23H13.045V16.76H14.565V18.28H19.135V16.76H20.665V15.23H22.185V13.71H23.705V9.14001H22.185V12.19Z" fill="#000001"/>
<path d="M22.185 25.9H20.665V27.42H22.185V25.9Z" fill="#000001"/>
<path d="M22.185 7.60999H20.665V9.13999H22.185V7.60999Z" fill="#000001"/>
<path d="M23.705 1.52002H20.665V3.04002H23.705V1.52002Z" fill="#000001"/>
<path d="M20.665 27.42H19.135V28.95H20.665V27.42Z" fill="#000001"/>
<path d="M20.665 6.09003H19.135V7.61003H20.665V6.09003Z" fill="#000001"/>
<path d="M19.135 28.95H17.615V30.47H19.135V28.95Z" fill="#000001"/>
<path d="M17.6151 30.47H16.0851V32H17.6151V30.47Z" fill="#000001"/>
<path d="M16.0851 28.95H14.5651V30.47H16.0851V28.95Z" fill="#000001"/>
<path d="M20.665 0H13.045V1.52H20.665V0Z" fill="#000001"/>
<path d="M14.565 27.42H13.045V28.95H14.565V27.42Z" fill="#000001"/>
<path d="M13.045 25.9H11.515V27.42H13.045V25.9Z" fill="#000001"/>
<path d="M13.045 1.52002H9.995V3.04002H13.045V1.52002Z" fill="#000001"/>
<path d="M11.515 22.85H9.995V25.9H11.515V22.85Z" fill="#000001"/>
<path d="M9.99509 19.8H8.46509V22.85H9.99509V19.8Z" fill="#000001"/>
<path d="M9.99509 3.03998H8.46509V4.56998H9.99509V3.03998Z" fill="#000001"/>
<path d="M8.46507 15.23H6.94507V19.8H8.46507V15.23Z" fill="#000001"/>
<path d="M8.46507 4.57001H6.94507V7.61001H8.46507V4.57001Z" fill="#000001"/>
<path d="M6.94505 7.60999H5.42505V15.23H6.94505V7.60999Z" fill="#000001"/>
</svg>
